<svg width="123" height="22" viewBox="0 0 123 22" fill="none" xmlns="http://www.w3.org/2000/svg">
<path d="M10.643 15.026V12.619C9.019 14.156 4.089 14.388 4.089 17.433C4.089 18.825 5.104 19.637 6.38 19.637C8.381 19.637 10.643 17.52 10.643 15.026ZM10.643 9.864C10.643 7.66 9.541 6.036 7.801 6.036C6.583 6.036 6.09 6.964 6.09 7.921C6.09 8.994 6.699 9.835 7.337 9.603C6.96 10.27 6.119 11.053 4.93 11.053C3.741 11.053 2.842 10.212 2.842 8.994C2.842 7.109 4.901 5.659 7.859 5.659C11.252 5.659 14.065 7.544 14.065 10.531V18.216C14.065 19.434 14.239 19.811 14.877 19.811C15.196 19.811 15.457 19.724 15.631 19.55L15.776 19.724C15.515 20.13 14.732 21.058 13.108 21.058C11.571 21.058 10.643 20.159 10.643 18.68V17.027C9.773 19.521 7.018 21.29 4.205 21.29C1.856 21.29 0.522 20.014 0.522 18.245C0.522 13.344 10.643 14.127 10.643 11.517V9.864ZM20.952 6.239V18.187C20.952 19.318 21.329 19.753 21.909 19.753C22.402 19.753 22.779 19.492 23.04 19.173L23.214 19.405C22.982 19.898 21.996 21.058 20.314 21.058C18.632 21.058 17.53 19.956 17.53 18.303V8.501C17.53 6.935 17.095 6.094 16.109 5.978V5.659L20.662 1.599H20.952V5.659H22.837V6.239H20.952ZM27.7992 10.27H33.9472C33.9472 7.776 32.7872 6.094 31.1922 6.094C29.3362 6.094 28.2922 8.182 27.7992 10.27ZM23.9712 13.547C23.9712 8.733 26.8132 5.659 30.9892 5.659C34.3822 5.659 36.9342 7.66 36.9342 10.357V10.705H27.7122C27.5382 11.546 27.4802 12.358 27.4802 12.996C27.4802 16.911 29.5102 19.811 32.6712 19.811C34.1212 19.811 35.7162 19.173 36.8762 17.955L37.0792 18.129C35.7742 20.014 33.6572 21.087 30.9892 21.087C26.5812 21.087 23.9712 18.129 23.9712 13.547ZM43.0109 0.960999V18.361C43.0109 19.347 43.3299 20.449 44.4899 20.623V21H38.1099V20.623C39.2699 20.42 39.5889 19.318 39.5889 18.332V3.716C39.5889 2.266 39.1829 1.976 38.1969 1.918V1.628L42.7789 0.699999L43.0109 0.960999ZM46.2466 2.817C46.2466 1.744 47.0876 1.048 48.3056 1.048C49.5236 1.048 50.3646 1.744 50.3646 2.817C50.3646 3.948 49.6106 4.702 48.3056 4.702C47.0296 4.702 46.2466 3.948 46.2466 2.817ZM50.2486 5.572V18.361C50.2486 19.347 50.5676 20.449 51.7276 20.623V21H45.3476V20.623C46.5076 20.42 46.8266 19.318 46.8266 18.332V7.892C46.8266 6.877 46.4206 6.645 45.4346 6.616V6.326L50.0166 5.398L50.2486 5.572ZM56.6576 10.27H62.8056C62.8056 7.776 61.6456 6.094 60.0506 6.094C58.1946 6.094 57.1506 8.182 56.6576 10.27ZM52.8296 13.547C52.8296 8.733 55.6716 5.659 59.8476 5.659C63.2406 5.659 65.7926 7.66 65.7926 10.357V10.705H56.5706C56.3966 11.546 56.3386 12.358 56.3386 12.996C56.3386 16.911 58.3686 19.811 61.5296 19.811C62.9796 19.811 64.5746 19.173 65.7346 17.955L65.9376 18.129C64.6326 20.014 62.5156 21.087 59.8476 21.087C55.4396 21.087 52.8296 18.129 52.8296 13.547ZM75.6973 7.602C73.5223 7.602 71.8403 12.967 71.8403 14.214V18.419C71.8403 19.376 72.1593 20.449 73.3193 20.623V21H66.9393V20.623C68.0993 20.42 68.4183 19.318 68.4183 18.332V7.892C68.4183 6.877 68.0123 6.645 67.0263 6.616V6.326L71.6083 5.398L71.8403 5.572V11.952C72.4783 9.574 74.0443 5.63 77.1183 5.63C78.5973 5.63 79.5253 6.558 79.5253 7.776C79.5253 8.791 78.8583 9.69 77.6403 9.69C76.7993 9.69 76.1903 9.226 75.8713 8.675C76.1323 8.646 76.3933 8.356 76.3933 8.095C76.3933 7.834 76.1323 7.602 75.6973 7.602ZM97.9955 21.087C92.1955 21.087 88.5415 16.998 88.5415 10.995C88.5415 5.166 92.1085 0.554999 97.9085 0.554999C103.709 0.554999 107.334 5.137 107.334 11.053C107.334 16.969 103.767 21.087 97.9955 21.087ZM100.345 20.362C104.057 19.463 104.985 14.823 103.709 9.69C102.549 4.992 99.8515 1.164 96.5455 1.164C96.2265 1.164 95.8785 1.193 95.5305 1.28C91.7605 2.15 90.8615 7.341 92.1085 12.416C93.2685 17.143 95.9655 20.507 99.1845 20.507C99.5615 20.507 99.9675 20.449 100.345 20.362ZM115.275 20.565C117.566 20.536 119.625 19.115 119.625 16.708C119.625 11.343 108.982 11.865 108.982 5.833C108.982 2.846 111.592 0.699999 115.42 0.699999C118.9 0.699999 121.365 2.527 121.365 4.905C121.365 6.384 120.35 7.486 118.9 7.486C117.653 7.486 116.812 6.645 116.319 5.688C117.334 5.775 117.885 4.731 117.885 3.658C117.885 2.411 117.189 1.193 115.159 1.193C113.303 1.193 111.708 2.237 111.708 4.151C111.708 9.168 122.728 8.936 122.728 15.229C122.728 18.97 118.842 21.145 115.159 21.145C111.186 21.145 108.054 18.651 108.054 16.012C108.054 14.533 109.069 13.431 110.49 13.431C111.766 13.431 112.665 14.359 113.1 15.229C112.114 15.142 111.534 16.215 111.534 17.288C111.534 18.767 112.694 20.565 115.275 20.565Z" fill="#E4FF55"/>
</svg>
